<mxfile host="app.diagrams.net" agent="Mozilla/5.0 (Macintosh; Intel Mac OS X 10_15_7) AppleWebKit/605.1.15 (KHTML, like Gecko) Version/18.0.1 Safari/605.1.15" version="24.8.0">
  <diagram name="Page-1" id="13-ynUv5Vi8niWrXXFms">
    <mxGraphModel dx="1570" dy="1033" grid="1" gridSize="10" guides="1" tooltips="1" connect="1" arrows="1" fold="1" page="1" pageScale="1" pageWidth="1169" pageHeight="827" math="0" shadow="0">
      <root>
        <mxCell id="0" />
        <mxCell id="1" parent="0" />
        <mxCell id="L4TfTG_HE_Cz_6SOouko-1" value="&lt;b&gt;Region&lt;/b&gt;" style="points=[[0,0],[0.25,0],[0.5,0],[0.75,0],[1,0],[1,0.25],[1,0.5],[1,0.75],[1,1],[0.75,1],[0.5,1],[0.25,1],[0,1],[0,0.75],[0,0.5],[0,0.25]];outlineConnect=0;gradientColor=none;html=1;whiteSpace=wrap;fontSize=12;fontStyle=0;container=1;pointerEvents=0;collapsible=0;recursiveResize=0;shape=mxgraph.aws4.group;grIcon=mxgraph.aws4.group_region;strokeColor=#00A4A6;fillColor=none;verticalAlign=top;align=left;spacingLeft=30;fontColor=#147EBA;" parent="1" vertex="1">
          <mxGeometry x="80" y="80" width="1040" height="680" as="geometry" />
        </mxCell>
        <mxCell id="L4TfTG_HE_Cz_6SOouko-4" value="AWS Cloud" style="points=[[0,0],[0.25,0],[0.5,0],[0.75,0],[1,0],[1,0.25],[1,0.5],[1,0.75],[1,1],[0.75,1],[0.5,1],[0.25,1],[0,1],[0,0.75],[0,0.5],[0,0.25]];outlineConnect=0;gradientColor=none;html=1;whiteSpace=wrap;fontSize=12;fontStyle=0;container=1;pointerEvents=0;collapsible=0;recursiveResize=0;shape=mxgraph.aws4.group;grIcon=mxgraph.aws4.group_aws_cloud_alt;strokeColor=#232F3E;fillColor=none;verticalAlign=top;align=left;spacingLeft=30;fontColor=#232F3E;dashed=0;" parent="1" vertex="1">
          <mxGeometry x="40" y="40" width="1120" height="760" as="geometry" />
        </mxCell>
        <mxCell id="x8ulssIdyP4FOZrkm7Mt-1" value="&lt;span style=&quot;caret-color: rgb(20, 126, 186); color: rgb(20, 126, 186); text-align: left;&quot;&gt;Asia Pacific (Mumbai)&lt;/span&gt;" style="text;html=1;align=center;verticalAlign=middle;whiteSpace=wrap;rounded=0;" parent="L4TfTG_HE_Cz_6SOouko-4" vertex="1">
          <mxGeometry x="930" y="40" width="130" height="30" as="geometry" />
        </mxCell>
        <mxCell id="L4TfTG_HE_Cz_6SOouko-7" value="&lt;font color=&quot;#607175&quot;&gt;&lt;b&gt;VPC&lt;/b&gt;&lt;/font&gt;" style="points=[[0,0],[0.25,0],[0.5,0],[0.75,0],[1,0],[1,0.25],[1,0.5],[1,0.75],[1,1],[0.75,1],[0.5,1],[0.25,1],[0,1],[0,0.75],[0,0.5],[0,0.25]];outlineConnect=0;gradientColor=none;html=1;whiteSpace=wrap;fontSize=12;fontStyle=0;container=1;pointerEvents=0;collapsible=0;recursiveResize=0;shape=mxgraph.aws4.group;grIcon=mxgraph.aws4.group_vpc2;strokeColor=#8C4FFF;fillColor=none;verticalAlign=top;align=left;spacingLeft=30;fontColor=#AAB7B8;dashed=0;" parent="1" vertex="1">
          <mxGeometry x="120" y="120" width="960" height="600" as="geometry" />
        </mxCell>
        <mxCell id="L4TfTG_HE_Cz_6SOouko-2" value="&lt;b&gt;Availability Zone&lt;/b&gt;" style="fillColor=none;strokeColor=#147EBA;dashed=1;verticalAlign=top;fontStyle=0;fontColor=#147EBA;whiteSpace=wrap;html=1;" parent="L4TfTG_HE_Cz_6SOouko-7" vertex="1">
          <mxGeometry x="40" y="40" width="400" height="480" as="geometry" />
        </mxCell>
        <mxCell id="L4TfTG_HE_Cz_6SOouko-5" value="&lt;b&gt;Availability Zone&lt;/b&gt;" style="fillColor=none;strokeColor=#147EBA;dashed=1;verticalAlign=top;fontStyle=0;fontColor=#147EBA;whiteSpace=wrap;html=1;" parent="L4TfTG_HE_Cz_6SOouko-7" vertex="1">
          <mxGeometry x="600" y="40" width="320" height="480" as="geometry" />
        </mxCell>
        <mxCell id="2Y4jXMCBEfJ4xLDZcFPG-1" value="&lt;b&gt;Public subnet&lt;/b&gt;" style="points=[[0,0],[0.25,0],[0.5,0],[0.75,0],[1,0],[1,0.25],[1,0.5],[1,0.75],[1,1],[0.75,1],[0.5,1],[0.25,1],[0,1],[0,0.75],[0,0.5],[0,0.25]];outlineConnect=0;gradientColor=none;html=1;whiteSpace=wrap;fontSize=12;fontStyle=0;container=1;pointerEvents=0;collapsible=0;recursiveResize=0;shape=mxgraph.aws4.group;grIcon=mxgraph.aws4.group_security_group;grStroke=0;strokeColor=#7AA116;fillColor=#F2F6E8;verticalAlign=top;align=left;spacingLeft=30;fontColor=#248814;dashed=0;" parent="L4TfTG_HE_Cz_6SOouko-7" vertex="1">
          <mxGeometry x="80" y="120" width="320" height="360" as="geometry" />
        </mxCell>
        <mxCell id="x8ulssIdyP4FOZrkm7Mt-5" value="&lt;b&gt;EC2&lt;/b&gt; &lt;b&gt;instance&lt;/b&gt;&lt;div&gt;mohamed-reume-app-ec2&lt;/div&gt;" style="points=[[0,0],[0.25,0],[0.5,0],[0.75,0],[1,0],[1,0.25],[1,0.5],[1,0.75],[1,1],[0.75,1],[0.5,1],[0.25,1],[0,1],[0,0.75],[0,0.5],[0,0.25]];outlineConnect=0;gradientColor=none;html=1;whiteSpace=wrap;fontSize=12;fontStyle=0;container=1;pointerEvents=0;collapsible=0;recursiveResize=0;shape=mxgraph.aws4.group;grIcon=mxgraph.aws4.group_ec2_instance_contents;strokeColor=#D86613;fillColor=none;verticalAlign=top;align=left;spacingLeft=30;fontColor=#D86613;dashed=0;" parent="2Y4jXMCBEfJ4xLDZcFPG-1" vertex="1">
          <mxGeometry x="50" y="86" width="230" height="175" as="geometry" />
        </mxCell>
        <mxCell id="x8ulssIdyP4FOZrkm7Mt-2" value="&lt;span style=&quot;caret-color: rgb(96, 113, 117); color: rgb(96, 113, 117); text-align: left;&quot;&gt;mohamed-resume-app-vpc&lt;/span&gt;" style="text;html=1;align=center;verticalAlign=middle;whiteSpace=wrap;rounded=0;" parent="L4TfTG_HE_Cz_6SOouko-7" vertex="1">
          <mxGeometry x="800" width="150" height="30" as="geometry" />
        </mxCell>
        <mxCell id="x8ulssIdyP4FOZrkm7Mt-3" value="&lt;span style=&quot;caret-color: rgb(20, 126, 186); color: rgb(20, 126, 186);&quot;&gt;ap-south-1a&lt;/span&gt;" style="text;html=1;align=center;verticalAlign=middle;whiteSpace=wrap;rounded=0;" parent="L4TfTG_HE_Cz_6SOouko-7" vertex="1">
          <mxGeometry x="360" y="40" width="80" height="30" as="geometry" />
        </mxCell>
        <mxCell id="x8ulssIdyP4FOZrkm7Mt-4" value="&lt;span style=&quot;caret-color: rgb(20, 126, 186); color: rgb(20, 126, 186);&quot;&gt;ap-south-1b&lt;/span&gt;" style="text;html=1;align=center;verticalAlign=middle;whiteSpace=wrap;rounded=0;" parent="L4TfTG_HE_Cz_6SOouko-7" vertex="1">
          <mxGeometry x="840" y="40" width="80" height="30" as="geometry" />
        </mxCell>
        <mxCell id="x8ulssIdyP4FOZrkm7Mt-6" value="mohamedcraj-resume-app (Next.js)" style="text;html=1;align=center;verticalAlign=middle;whiteSpace=wrap;rounded=0;" parent="L4TfTG_HE_Cz_6SOouko-7" vertex="1">
          <mxGeometry x="140" y="280" width="210" height="30" as="geometry" />
        </mxCell>
        <mxCell id="x8ulssIdyP4FOZrkm7Mt-8" value="system ctl" style="text;html=1;align=center;verticalAlign=middle;whiteSpace=wrap;rounded=0;" parent="L4TfTG_HE_Cz_6SOouko-7" vertex="1">
          <mxGeometry x="162.5" y="340" width="155" height="30" as="geometry" />
        </mxCell>
        <mxCell id="x8ulssIdyP4FOZrkm7Mt-9" value="GitHub integration using ssh" style="text;html=1;align=center;verticalAlign=middle;whiteSpace=wrap;rounded=0;" parent="L4TfTG_HE_Cz_6SOouko-7" vertex="1">
          <mxGeometry x="167.5" y="250" width="155" height="30" as="geometry" />
        </mxCell>
        <mxCell id="x8ulssIdyP4FOZrkm7Mt-7" value="nginx - http/https" style="text;html=1;align=center;verticalAlign=middle;whiteSpace=wrap;rounded=0;" parent="L4TfTG_HE_Cz_6SOouko-7" vertex="1">
          <mxGeometry x="162.5" y="310" width="155" height="30" as="geometry" />
        </mxCell>
        <mxCell id="CtbZwT8K51sQD9rCroaq-2" value="&lt;span style=&quot;caret-color: rgb(36, 136, 20); color: rgb(36, 136, 20); text-align: left;&quot;&gt;mohamed-resume-app-subnet&lt;/span&gt;" style="text;html=1;align=center;verticalAlign=middle;whiteSpace=wrap;rounded=0;" vertex="1" parent="L4TfTG_HE_Cz_6SOouko-7">
          <mxGeometry x="225" y="120" width="175" height="30" as="geometry" />
        </mxCell>
      </root>
    </mxGraphModel>
  </diagram>
</mxfile>
